<svg xmlns="http://www.w3.org/2000/svg" viewBox="0 0 512 512">
  <rect width="512" height="512" rx="112" fill="#2563eb"/>
  <circle cx="384" cy="128" r="58" fill="#93c5fd" opacity="0.95"/>
  <path d="M118 146c0-22 18-40 40-40h202c22 0 40 18 40 40v264c0 18-15 33-33 33H158c-22 0-40-18-40-40V146z" fill="#eff6ff"/>
  <path d="M158 106h202c22 0 40 18 40 40v18H158c-22 0-40 18-40 40v-58c0-22 18-40 40-40z" fill="#bfdbfe"/>
  <text x="256" y="282" text-anchor="middle" font-family="Arial, sans-serif" font-size="126" font-weight="800" fill="#1d4ed8">Aa</text>
  <text x="256" y="365" text-anchor="middle" font-family="Arial, sans-serif" font-size="56" font-weight="700" fill="#0f172a">単語</text>
</svg>
